<?xml version="1.0" standalone="no"?>
<!DOCTYPE svg PUBLIC "-//W3C//DTD SVG 20010904//EN"
 "http://www.w3.org/TR/2001/REC-SVG-20010904/DTD/svg10.dtd">
<svg version="1.0" xmlns="http://www.w3.org/2000/svg"
 width="200.000000pt" height="213.000000pt" viewBox="0 0 200.000000 213.000000"
 preserveAspectRatio="xMidYMid meet">

<g transform="translate(0.000000,213.000000) scale(0.100000,-0.100000)"
fill="#000000" stroke="none">
<path d="M230 1445 c0 -54 1 -55 28 -55 51 0 52 -3 52 -300 0 -297 -1 -300
-52 -300 -27 0 -28 -1 -28 -55 l0 -55 165 0 165 0 0 55 c0 52 -2 55 -24 55
-55 0 -56 3 -56 136 l0 124 125 0 125 0 0 -118 c0 -128 -5 -142 -52 -142 -27
0 -28 -1 -28 -55 l0 -55 161 0 161 0 -32 37 c-106 120 -133 322 -75 565 19 83
19 167 -1 196 -14 20 -23 22 -115 22 l-99 0 0 -54 0 -55 38 -3 37 -3 3 -107 3
-108 -126 0 -126 0 3 108 3 107 38 3 37 3 0 55 0 54 -165 0 -165 0 0 -55z"/>
<path d="M982 1448 c-22 -29 -45 -64 -52 -76 -11 -22 -10 -23 10 -17 29 9 78
-12 86 -38 8 -24 -35 -67 -67 -67 -22 0 -24 -11 -7 -28 10 -10 7 -16 -11 -28
-23 -17 -51 -70 -51 -98 0 -11 8 -13 33 -9 24 4 37 0 51 -16 23 -26 16 -46
-27 -71 -35 -21 -57 -56 -57 -91 0 -17 3 -18 20 -7 28 18 35 4 14 -30 -16 -29
-16 -33 -1 -74 10 -25 33 -62 52 -83 l35 -38 178 5 c192 6 231 14 286 66 82
77 88 229 13 311 -12 13 -40 31 -62 41 -40 18 -40 18 -15 28 28 11 71 55 91
92 18 36 16 138 -4 177 -22 41 -71 78 -122 92 -22 6 -111 11 -197 11 l-157 0
-39 -52z m316 -84 c25 -5 62 -58 62 -87 0 -33 -30 -84 -56 -96 -14 -6 -58 -11
-99 -11 l-75 0 0 98 c0 54 2 101 4 103 5 5 133 0 164 -7z m43 -352 c38 -43 40
-101 4 -154 -29 -42 -57 -51 -150 -46 l-60 3 -3 119 -3 118 92 -3 c88 -4 92
-5 120 -37z"/>
</g>
</svg>
