<svg xmlns="http://www.w3.org/2000/svg" width="224.868" height="107.629" viewBox="0 0 224.868 107.629">
  <g id="Group_239" data-name="Group 239" transform="translate(224.868) rotate(90)">
    <path id="Path_1027" data-name="Path 1027" d="M1249.815-133.8h3.222v3.223a1.033,1.033,0,0,0,1.032,1.032,1.033,1.033,0,0,0,1.032-1.032V-133.8h3.223a1.033,1.033,0,0,0,1.032-1.032,1.033,1.033,0,0,0-1.032-1.032H1255.1v-3.223a1.032,1.032,0,0,0-1.032-1.031,1.032,1.032,0,0,0-1.032,1.031v3.223h-3.222a1.033,1.033,0,0,0-1.032,1.032A1.033,1.033,0,0,0,1249.815-133.8Z" transform="translate(-1151.727 354.409)" fill="#ccd7e7"/>
    <path id="Path_1028" data-name="Path 1028" d="M1249.815-102.879h3.222v3.223a1.033,1.033,0,0,0,1.032,1.032,1.033,1.033,0,0,0,1.032-1.032v-3.223h3.223a1.033,1.033,0,0,0,1.032-1.031,1.033,1.033,0,0,0-1.032-1.033H1255.1v-3.222a1.033,1.033,0,0,0-1.032-1.032,1.033,1.033,0,0,0-1.032,1.032v3.222h-3.222a1.033,1.033,0,0,0-1.032,1.033A1.032,1.032,0,0,0,1249.815-102.879Z" transform="translate(-1151.727 292.575)" fill="#ccd7e7"/>
    <path id="Path_1029" data-name="Path 1029" d="M1249.815-71.961h3.222v3.223a1.033,1.033,0,0,0,1.032,1.031,1.033,1.033,0,0,0,1.032-1.031v-3.223h3.223a1.033,1.033,0,0,0,1.032-1.032,1.033,1.033,0,0,0-1.032-1.032H1255.1v-3.223a1.033,1.033,0,0,0-1.032-1.032,1.033,1.033,0,0,0-1.032,1.032v3.223h-3.222a1.033,1.033,0,0,0-1.032,1.032A1.033,1.033,0,0,0,1249.815-71.961Z" transform="translate(-1151.727 230.741)" fill="#ccd7e7"/>
    <path id="Path_1030" data-name="Path 1030" d="M1249.815-41.046h3.222v3.223a1.033,1.033,0,0,0,1.032,1.032,1.033,1.033,0,0,0,1.032-1.032v-3.223h3.223a1.033,1.033,0,0,0,1.032-1.032,1.033,1.033,0,0,0-1.032-1.032H1255.1v-3.223a1.032,1.032,0,0,0-1.032-1.031,1.032,1.032,0,0,0-1.032,1.031v3.223h-3.222a1.033,1.033,0,0,0-1.032,1.032A1.033,1.033,0,0,0,1249.815-41.046Z" transform="translate(-1151.727 168.909)" fill="#ccd7e7"/>
    <path id="Path_1031" data-name="Path 1031" d="M1282.1-133.8h3.222v3.223a1.033,1.033,0,0,0,1.032,1.032,1.033,1.033,0,0,0,1.033-1.032V-133.8h3.222a1.033,1.033,0,0,0,1.033-1.032,1.033,1.033,0,0,0-1.033-1.032h-3.222v-3.223a1.033,1.033,0,0,0-1.033-1.031,1.032,1.032,0,0,0-1.032,1.031v3.223H1282.1a1.033,1.033,0,0,0-1.032,1.032A1.033,1.033,0,0,0,1282.1-133.8Z" transform="translate(-1216.29 354.409)" fill="#ccd7e7"/>
    <path id="Path_1032" data-name="Path 1032" d="M1282.1-102.879h3.222v3.223a1.033,1.033,0,0,0,1.032,1.032,1.033,1.033,0,0,0,1.033-1.032v-3.223h3.222a1.033,1.033,0,0,0,1.033-1.031,1.034,1.034,0,0,0-1.033-1.033h-3.222v-3.222a1.033,1.033,0,0,0-1.033-1.032,1.033,1.033,0,0,0-1.032,1.032v3.222H1282.1a1.033,1.033,0,0,0-1.032,1.033A1.033,1.033,0,0,0,1282.1-102.879Z" transform="translate(-1216.29 292.575)" fill="#ccd7e7"/>
    <path id="Path_1033" data-name="Path 1033" d="M1282.1-71.961h3.222v3.223a1.033,1.033,0,0,0,1.032,1.031,1.033,1.033,0,0,0,1.033-1.031v-3.223h3.222a1.033,1.033,0,0,0,1.033-1.032,1.033,1.033,0,0,0-1.033-1.032h-3.222v-3.223a1.033,1.033,0,0,0-1.033-1.032,1.033,1.033,0,0,0-1.032,1.032v3.223H1282.1a1.033,1.033,0,0,0-1.032,1.032A1.033,1.033,0,0,0,1282.1-71.961Z" transform="translate(-1216.29 230.741)" fill="#ccd7e7"/>
    <path id="Path_1034" data-name="Path 1034" d="M1282.1-41.046h3.222v3.223a1.033,1.033,0,0,0,1.032,1.032,1.033,1.033,0,0,0,1.033-1.032v-3.223h3.222a1.033,1.033,0,0,0,1.033-1.032,1.033,1.033,0,0,0-1.033-1.032h-3.222v-3.223a1.033,1.033,0,0,0-1.033-1.031,1.032,1.032,0,0,0-1.032,1.031v3.223H1282.1a1.033,1.033,0,0,0-1.032,1.032A1.033,1.033,0,0,0,1282.1-41.046Z" transform="translate(-1216.29 168.909)" fill="#ccd7e7"/>
    <path id="Path_1035" data-name="Path 1035" d="M1314.59-133.8h3.223v3.223a1.033,1.033,0,0,0,1.032,1.032,1.032,1.032,0,0,0,1.031-1.032V-133.8h3.223a1.033,1.033,0,0,0,1.032-1.032,1.033,1.033,0,0,0-1.032-1.032h-3.223v-3.223a1.032,1.032,0,0,0-1.031-1.031,1.032,1.032,0,0,0-1.032,1.031v3.223h-3.223a1.033,1.033,0,0,0-1.032,1.032A1.033,1.033,0,0,0,1314.59-133.8Z" transform="translate(-1281.277 354.409)" fill="#ccd7e7"/>
    <path id="Path_1036" data-name="Path 1036" d="M1314.59-102.879h3.223v3.223a1.033,1.033,0,0,0,1.032,1.032,1.032,1.032,0,0,0,1.031-1.032v-3.223h3.223a1.033,1.033,0,0,0,1.032-1.031,1.033,1.033,0,0,0-1.032-1.033h-3.223v-3.222a1.032,1.032,0,0,0-1.031-1.032,1.033,1.033,0,0,0-1.032,1.032v3.222h-3.223a1.033,1.033,0,0,0-1.032,1.033A1.033,1.033,0,0,0,1314.59-102.879Z" transform="translate(-1281.277 292.575)" fill="#ccd7e7"/>
    <path id="Path_1037" data-name="Path 1037" d="M1314.59-71.961h3.223v3.223a1.033,1.033,0,0,0,1.032,1.031,1.032,1.032,0,0,0,1.031-1.031v-3.223h3.223a1.033,1.033,0,0,0,1.032-1.032,1.033,1.033,0,0,0-1.032-1.032h-3.223v-3.223a1.032,1.032,0,0,0-1.031-1.032,1.033,1.033,0,0,0-1.032,1.032v3.223h-3.223a1.033,1.033,0,0,0-1.032,1.032A1.033,1.033,0,0,0,1314.59-71.961Z" transform="translate(-1281.277 230.741)" fill="#ccd7e7"/>
    <path id="Path_1038" data-name="Path 1038" d="M1314.59-41.046h3.223v3.223a1.033,1.033,0,0,0,1.032,1.032,1.032,1.032,0,0,0,1.031-1.032v-3.223h3.223a1.033,1.033,0,0,0,1.032-1.032,1.033,1.033,0,0,0-1.032-1.032h-3.223v-3.223a1.032,1.032,0,0,0-1.031-1.031,1.032,1.032,0,0,0-1.032,1.031v3.223h-3.223a1.033,1.033,0,0,0-1.032,1.032A1.033,1.033,0,0,0,1314.59-41.046Z" transform="translate(-1281.277 168.909)" fill="#ccd7e7"/>
    <path id="Path_1039" data-name="Path 1039" d="M1355.38-135.86h-3.223v-3.223a1.032,1.032,0,0,0-1.032-1.031,1.032,1.032,0,0,0-1.031,1.031v3.223h-3.224a1.033,1.033,0,0,0-1.031,1.032,1.033,1.033,0,0,0,1.031,1.032h3.224v3.223a1.033,1.033,0,0,0,1.031,1.032,1.033,1.033,0,0,0,1.032-1.032V-133.8h3.223a1.033,1.033,0,0,0,1.032-1.032A1.033,1.033,0,0,0,1355.38-135.86Z" transform="translate(-1345.839 354.409)" fill="#ccd7e7"/>
    <path id="Path_1040" data-name="Path 1040" d="M1346.87-102.879h3.224v3.223a1.033,1.033,0,0,0,1.031,1.032,1.033,1.033,0,0,0,1.032-1.032v-3.223h3.223a1.033,1.033,0,0,0,1.032-1.031,1.033,1.033,0,0,0-1.032-1.033h-3.223v-3.222a1.033,1.033,0,0,0-1.032-1.032,1.033,1.033,0,0,0-1.031,1.032v3.222h-3.224a1.033,1.033,0,0,0-1.031,1.033A1.033,1.033,0,0,0,1346.87-102.879Z" transform="translate(-1345.839 292.575)" fill="#ccd7e7"/>
    <path id="Path_1041" data-name="Path 1041" d="M1346.87-71.961h3.224v3.223a1.033,1.033,0,0,0,1.031,1.031,1.033,1.033,0,0,0,1.032-1.031v-3.223h3.223a1.033,1.033,0,0,0,1.032-1.032,1.033,1.033,0,0,0-1.032-1.032h-3.223v-3.223a1.033,1.033,0,0,0-1.032-1.032,1.033,1.033,0,0,0-1.031,1.032v3.223h-3.224a1.033,1.033,0,0,0-1.031,1.032A1.033,1.033,0,0,0,1346.87-71.961Z" transform="translate(-1345.839 230.741)" fill="#ccd7e7"/>
    <path id="Path_1042" data-name="Path 1042" d="M1346.87-41.046h3.224v3.223a1.033,1.033,0,0,0,1.031,1.032,1.033,1.033,0,0,0,1.032-1.032v-3.223h3.223a1.033,1.033,0,0,0,1.032-1.032,1.033,1.033,0,0,0-1.032-1.032h-3.223v-3.223a1.032,1.032,0,0,0-1.032-1.031,1.032,1.032,0,0,0-1.031,1.031v3.223h-3.224a1.033,1.033,0,0,0-1.031,1.032A1.033,1.033,0,0,0,1346.87-41.046Z" transform="translate(-1345.839 168.909)" fill="#ccd7e7"/>
    <path id="Path_1043" data-name="Path 1043" d="M1249.815-12.251h3.222v3.224A1.033,1.033,0,0,0,1254.069-8a1.033,1.033,0,0,0,1.032-1.031v-3.224h3.223a1.032,1.032,0,0,0,1.032-1.031,1.033,1.033,0,0,0-1.032-1.032H1255.1v-3.223a1.033,1.033,0,0,0-1.032-1.032,1.033,1.033,0,0,0-1.032,1.032v3.223h-3.222a1.033,1.033,0,0,0-1.032,1.032A1.032,1.032,0,0,0,1249.815-12.251Z" transform="translate(-1151.727 111.319)" fill="#ccd7e7"/>
    <path id="Path_1044" data-name="Path 1044" d="M1249.815,18.665h3.222v3.223a1.032,1.032,0,0,0,2.064,0V18.665h3.223a1.032,1.032,0,0,0,0-2.064H1255.1V13.378a1.032,1.032,0,0,0-2.064,0V16.6h-3.222a1.032,1.032,0,0,0,0,2.064Z" transform="translate(-1151.727 49.487)" fill="#ccd7e7"/>
    <path id="Path_1045" data-name="Path 1045" d="M1249.815,49.582h3.222v3.223a1.032,1.032,0,0,0,2.064,0V49.582h3.223a1.032,1.032,0,0,0,0-2.064H1255.1V44.3a1.032,1.032,0,0,0-2.064,0v3.222h-3.222a1.032,1.032,0,0,0,0,2.064Z" transform="translate(-1151.727 -12.347)" fill="#ccd7e7"/>
    <path id="Path_1046" data-name="Path 1046" d="M1249.815,80.5h3.222v3.224a1.032,1.032,0,0,0,2.064,0V80.5h3.223a1.032,1.032,0,1,0,0-2.063H1255.1V75.213a1.032,1.032,0,0,0-2.064,0v3.223h-3.222a1.032,1.032,0,1,0,0,2.063Z" transform="translate(-1151.727 -74.181)" fill="#ccd7e7"/>
    <path id="Path_1047" data-name="Path 1047" d="M1282.1-12.251h3.222v3.224A1.033,1.033,0,0,0,1286.35-8a1.033,1.033,0,0,0,1.033-1.031v-3.224h3.222a1.033,1.033,0,0,0,1.033-1.031,1.033,1.033,0,0,0-1.033-1.032h-3.222v-3.223a1.033,1.033,0,0,0-1.033-1.032,1.033,1.033,0,0,0-1.032,1.032v3.223H1282.1a1.033,1.033,0,0,0-1.032,1.032A1.032,1.032,0,0,0,1282.1-12.251Z" transform="translate(-1216.29 111.319)" fill="#ccd7e7"/>
    <path id="Path_1048" data-name="Path 1048" d="M1282.1,18.665h3.222v3.223a1.033,1.033,0,0,0,2.065,0V18.665h3.222a1.032,1.032,0,1,0,0-2.064h-3.222V13.378a1.033,1.033,0,0,0-2.065,0V16.6H1282.1a1.032,1.032,0,0,0,0,2.064Z" transform="translate(-1216.29 49.487)" fill="#ccd7e7"/>
    <path id="Path_1049" data-name="Path 1049" d="M1282.1,49.582h3.222v3.223a1.033,1.033,0,0,0,2.065,0V49.582h3.222a1.032,1.032,0,1,0,0-2.064h-3.222V44.3a1.033,1.033,0,0,0-2.065,0v3.222H1282.1a1.032,1.032,0,0,0,0,2.064Z" transform="translate(-1216.29 -12.347)" fill="#ccd7e7"/>
    <path id="Path_1050" data-name="Path 1050" d="M1282.1,80.5h3.222v3.224a1.033,1.033,0,0,0,2.065,0V80.5h3.222a1.032,1.032,0,1,0,0-2.063h-3.222V75.213a1.033,1.033,0,0,0-2.065,0v3.223H1282.1a1.032,1.032,0,1,0,0,2.063Z" transform="translate(-1216.29 -74.181)" fill="#ccd7e7"/>
    <path id="Path_1051" data-name="Path 1051" d="M1314.59-12.251h3.223v3.224A1.033,1.033,0,0,0,1318.845-8a1.032,1.032,0,0,0,1.031-1.031v-3.224h3.223a1.032,1.032,0,0,0,1.032-1.031,1.033,1.033,0,0,0-1.032-1.032h-3.223v-3.223a1.032,1.032,0,0,0-1.031-1.032,1.033,1.033,0,0,0-1.032,1.032v3.223h-3.223a1.033,1.033,0,0,0-1.032,1.032A1.032,1.032,0,0,0,1314.59-12.251Z" transform="translate(-1281.277 111.319)" fill="#ccd7e7"/>
    <path id="Path_1052" data-name="Path 1052" d="M1314.59,18.665h3.223v3.223a1.031,1.031,0,1,0,2.063,0V18.665h3.223a1.032,1.032,0,0,0,0-2.064h-3.223V13.378a1.031,1.031,0,0,0-2.063,0V16.6h-3.223a1.032,1.032,0,0,0,0,2.064Z" transform="translate(-1281.277 49.487)" fill="#ccd7e7"/>
    <path id="Path_1053" data-name="Path 1053" d="M1314.59,49.582h3.223v3.223a1.031,1.031,0,1,0,2.063,0V49.582h3.223a1.032,1.032,0,0,0,0-2.064h-3.223V44.3a1.031,1.031,0,1,0-2.063,0v3.222h-3.223a1.032,1.032,0,0,0,0,2.064Z" transform="translate(-1281.277 -12.347)" fill="#ccd7e7"/>
    <path id="Path_1054" data-name="Path 1054" d="M1314.59,80.5h3.223v3.224a1.031,1.031,0,0,0,2.063,0V80.5h3.223a1.032,1.032,0,1,0,0-2.063h-3.223V75.213a1.031,1.031,0,1,0-2.063,0v3.223h-3.223a1.032,1.032,0,1,0,0,2.063Z" transform="translate(-1281.277 -74.181)" fill="#ccd7e7"/>
    <path id="Path_1055" data-name="Path 1055" d="M1346.87-12.251h3.224v3.224A1.033,1.033,0,0,0,1351.125-8a1.033,1.033,0,0,0,1.032-1.031v-3.224h3.223a1.032,1.032,0,0,0,1.032-1.031,1.033,1.033,0,0,0-1.032-1.032h-3.223v-3.223a1.033,1.033,0,0,0-1.032-1.032,1.033,1.033,0,0,0-1.031,1.032v3.223h-3.224a1.033,1.033,0,0,0-1.031,1.032A1.032,1.032,0,0,0,1346.87-12.251Z" transform="translate(-1345.839 111.319)" fill="#ccd7e7"/>
    <path id="Path_1056" data-name="Path 1056" d="M1346.87,18.665h3.224v3.223a1.031,1.031,0,1,0,2.063,0V18.665h3.223a1.032,1.032,0,0,0,0-2.064h-3.223V13.378a1.031,1.031,0,0,0-2.063,0V16.6h-3.224a1.032,1.032,0,0,0,0,2.064Z" transform="translate(-1345.839 49.487)" fill="#ccd7e7"/>
    <path id="Path_1057" data-name="Path 1057" d="M1346.87,49.582h3.224v3.223a1.031,1.031,0,1,0,2.063,0V49.582h3.223a1.032,1.032,0,0,0,0-2.064h-3.223V44.3a1.031,1.031,0,1,0-2.063,0v3.222h-3.224a1.032,1.032,0,0,0,0,2.064Z" transform="translate(-1345.839 -12.347)" fill="#ccd7e7"/>
    <path id="Path_1058" data-name="Path 1058" d="M1346.87,80.5h3.224v3.224a1.031,1.031,0,0,0,2.063,0V80.5h3.223a1.032,1.032,0,1,0,0-2.063h-3.223V75.213a1.031,1.031,0,1,0-2.063,0v3.223h-3.224a1.032,1.032,0,0,0,0,2.063Z" transform="translate(-1345.839 -74.181)" fill="#ccd7e7"/>
  </g>
</svg>
